<?xml version="1.0" encoding="UTF-8"?>
<svg xmlns="http://www.w3.org/2000/svg" viewBox="0 0 895.625 248.000" fill="none">
  <g transform="translate(24.000 24.000) scale(10.000000)">
    <path fill="#000000" fill-rule="evenodd" d="M3.51294 12.4289L0.992188 13.8841L10.9392 19.6266L25.0023 11.508L22.4815 10.0527L10.9392 16.7161Z"/>
    <path fill="#285FF5" d="M15.0508 0.3691L24.9978 6.1116L10.9348 14.2301L0.9878 8.4877Z"/>
  </g>
  <g transform="translate(314.000 182.203) scale(0.078125 -0.078125)">
    <path fill="#000000" d="M172.44287109375 0.0V1490.0H694.318359375Q867.5986328125 1490.0 981.17822265625 1426.320068359375Q1094.7578125 1362.64013671875 1150.6072998046875 1254.560546875Q1206.456787109375 1146.48095703125 1206.456787109375 1011.141845703125Q1206.456787109375 875.7127685546875 1150.4723510742188 766.9480590820312Q1094.4879150390625 658.183349609375 981.0484619140625 594.2283325195312Q867.6090087890625 530.2733154296875 693.9688720703125 530.2733154296875H330.899658203125V710.498291015625H678.4013671875Q792.262939453125 710.498291015625 862.3736572265625 749.6488037109375Q932.484375 788.79931640625 964.4895629882812 857.0951538085938Q996.4947509765625 925.3909912109375 996.4947509765625 1011.141845703125Q996.4947509765625 1097.0726318359375 964.4895629882812 1164.4134521484375Q932.484375 1231.7542724609375 861.9186401367188 1270.3148193359375Q791.3529052734375 1308.8753662109375 676.581298828125 1308.8753662109375H381.695556640625V0.0Z M1674.4719482421874 -25.2802734375Q1568.381982421875 -25.2802734375 1482.241845703125 14.31488037109375Q1396.101708984375 53.9100341796875 1345.5515380859374 130.460205078125Q1295.0013671875 207.0103759765625 1295.0013671875 317.100341796875Q1295.0013671875 412.740478515625 1332.3716064453124 473.1903076171875Q1369.741845703125 533.64013671875 1432.5671020507812 568.7698974609375Q1495.3923583984374 603.899658203125 1572.1674438476562 621.3944702148438Q1648.942529296875 638.8892822265625 1727.7522216796874 648.5294189453125Q1827.2124267578124 660.9896240234375 1889.6276489257812 668.259521484375Q1952.04287109375 675.5294189453125 1982.0930419921874 692.7543334960938Q2012.143212890625 709.979248046875 2012.143212890625 750.1695556640625V755.9896240234375Q2012.143212890625 822.301025390625 1987.0878540039062 868.2369995117188Q1962.0324951171874 914.1729736328125 1912.1916748046874 938.7785034179688Q1862.3508544921874 963.384033203125 1787.859521484375 963.384033203125Q1711.6380859375 963.384033203125 1656.977197265625 939.6435546875Q1602.31630859375 915.903076171875 1568.1657958984374 879.7975463867188Q1534.015283203125 843.6920166015625 1517.0049072265624 805.141845703125L1327.0013671875 860.2525634765625Q1367.5722900390624 961.5328369140625 1439.582666015625 1020.7871704101562Q1511.5930419921874 1080.04150390625 1601.5273071289062 1106.020751953125Q1691.461572265625 1132.0 1783.8491455078124 1132.0Q1845.5169921875 1132.0 1919.2661376953124 1117.1954956054688Q1993.015283203125 1102.3909912109375 2059.69521484375 1061.4913330078125Q2126.375146484375 1020.5916748046875 2169.2453857421874 943.1712646484375Q2212.115625 865.7508544921875 2212.115625 739.6090087890625V0.0H2017.2124267578124V152.539794921875H2005.5722900390624Q1985.222802734375 111.380615234375 1942.7279907226562 70.1505126953125Q1900.2331787109374 28.92041015625 1833.862939453125 1.820068359375Q1767.4927001953124 -25.2802734375 1674.4719482421874 -25.2802734375ZM1714.378564453125 142.2664794921875Q1809.52041015625 142.2664794921875 1875.9563842773437 179.4671630859375Q1942.3923583984374 216.6678466796875 1977.4477172851562 276.73876953125Q2012.503076171875 336.8096923828125 2012.503076171875 403.2802734375V552.6124267578125Q2001.0532470703124 540.2421875 1965.76259765625 530.1470336914062Q1930.4719482421874 520.0518798828125 1885.401025390625 512.32177734375Q1840.3301025390624 504.5916748046875 1797.89931640625 499.22662353515625Q1755.4685302734374 493.861572265625 1729.6484619140624 490.7716064453125Q1666.2678466796874 482.861572265625 1612.196923828125 463.6314697265625Q1558.1260009765624 444.4013671875 1525.9253173828124 408.160888671875Q1493.7246337890624 371.92041015625 1493.7246337890624 311.0692138671875Q1493.7246337890624 255.498291015625 1522.375146484375 218.07269287109375Q1551.0256591796874 180.6470947265625 1600.6865478515624 161.456787109375Q1650.3474365234374 142.2664794921875 1714.378564453125 142.2664794921875Z M2398.8712646484373 -403.4705810546875 2448.6498291015623 -235.7750244140625 2470.618701171875 -241.584716796875Q2526.6083251953123 -255.8546142578125 2571.87822265625 -249.2646484375Q2617.1481201171873 -242.6746826171875 2651.8885986328123 -205.84423828125Q2686.6290771484373 -169.0137939453125 2710.12041015625 -93.062255859375L2738.2518798828123 -5.5501708984375L2312.421435546875 1118.0H2529.6637451171873L2759.296923828125 468.7647705078125Q2796.75712890625 363.775146484375 2821.9924194335936 260.47064208984375Q2847.2277099609373 157.1661376953125 2875.9578125 57.2076416015625H2809.3280517578123Q2838.058154296875 157.1661376953125 2864.603137207031 261.015625Q2891.1481201171873 364.8651123046875 2927.9681884765623 468.7647705078125L3160.7709228515623 1118.0H3376.5634033203123L2888.2623779296873 -161.1522216796875Q2854.2623779296873 -250.3321533203125 2805.817736816406 -309.2716064453125Q2757.373095703125 -368.2110595703125 2691.719104003906 -397.10552978515625Q2626.0651123046873 -426.0 2541.4872314453123 -426.0Q2491.59794921875 -426.0 2453.71904296875 -418.7301025390625Q2415.84013671875 -411.460205078125 2398.8712646484373 -403.4705810546875Z M3790.671948242187 -25.2802734375Q3684.5819824218747 -25.2802734375 3598.4418457031247 14.31488037109375Q3512.3017089843747 53.9100341796875 3461.751538085937 130.460205078125Q3411.2013671874997 207.0103759765625 3411.2013671874997 317.100341796875Q3411.2013671874997 412.740478515625 3448.571606445312 473.1903076171875Q3485.9418457031247 533.64013671875 3548.767102050781 568.7698974609375Q3611.592358398437 603.899658203125 3688.367443847656 621.3944702148438Q3765.1425292968747 638.8892822265625 3843.952221679687 648.5294189453125Q3943.412426757812 660.9896240234375 4005.827648925781 668.259521484375Q4068.2428710937497 675.5294189453125 4098.293041992187 692.7543334960938Q4128.343212890624 709.979248046875 4128.343212890624 750.1695556640625V755.9896240234375Q4128.343212890624 822.301025390625 4103.2878540039055 868.2369995117188Q4078.232495117187 914.1729736328125 4028.391674804687 938.7785034179688Q3978.550854492187 963.384033203125 3904.0595214843747 963.384033203125Q3827.8380859374997 963.384033203125 3773.1771972656247 939.6435546875Q3718.5163085937497 915.903076171875 3684.365795898437 879.7975463867188Q3650.2152832031247 843.6920166015625 3633.204907226562 805.141845703125L3443.2013671874997 860.2525634765625Q3483.772290039062 961.5328369140625 3555.7826660156247 1020.7871704101562Q3627.793041992187 1080.04150390625 3717.727307128906 1106.020751953125Q3807.6615722656247 1132.0 3900.049145507812 1132.0Q3961.7169921874997 1132.0 4035.4661376953118 1117.1954956054688Q4109.215283203124 1102.3909912109375 4175.895214843749 1061.4913330078125Q4242.575146484374 1020.5916748046875 4285.445385742187 943.1712646484375Q4328.315624999999 865.7508544921875 4328.315624999999 739.6090087890625V0.0H4133.412426757812V152.539794921875H4121.772290039062Q4101.422802734374 111.380615234375 4058.9279907226555 70.1505126953125Q4016.433178710937 28.92041015625 3950.0629394531247 1.820068359375Q3883.692700195312 -25.2802734375 3790.671948242187 -25.2802734375ZM3830.5785644531247 142.2664794921875Q3925.7204101562497 142.2664794921875 3992.1563842773435 179.4671630859375Q4058.592358398437 216.6678466796875 4093.6477172851555 276.73876953125Q4128.703076171874 336.8096923828125 4128.703076171874 403.2802734375V552.6124267578125Q4117.253247070312 540.2421875 4081.9625976562493 530.1470336914062Q4046.671948242187 520.0518798828125 4001.6010253906247 512.32177734375Q3956.530102539062 504.5916748046875 3914.0993164062497 499.22662353515625Q3871.668530273437 493.861572265625 3845.848461914062 490.7716064453125Q3782.467846679687 482.861572265625 3728.3969238281247 463.6314697265625Q3674.326000976562 444.4013671875 3642.125317382812 408.160888671875Q3609.924633789062 371.92041015625 3609.924633789062 311.0692138671875Q3609.924633789062 255.498291015625 3638.5751464843747 218.07269287109375Q3667.225659179687 180.6470947265625 3716.886547851562 161.456787109375Q3766.547436523437 142.2664794921875 3830.5785644531247 142.2664794921875Z M5068.265112304687 -23.100341796875Q4964.784155273437 -23.100341796875 4900.099035644531 12.45501708984375Q4835.413916015625 48.0103759765625 4799.694189453125 94.3304443359375Q4763.974462890625 140.6505126953125 4744.614599609375 173.9896240234375H4725.5142578125V0.0H4531.3619140625V1490.0H4731.334326171875V937.4705810546875H4744.614599609375Q4763.884497070312 969.899658203125 4798.604223632812 1015.6245727539062Q4833.323950195312 1061.3494873046875 4897.189001464843 1096.6747436523438Q4961.054052734375 1132.0 5067.71494140625 1132.0Q5205.105932617187 1132.0 5310.976171875 1062.9896240234375Q5416.846411132812 993.979248046875 5477.571325683593 864.7491455078125Q5538.296240234375 735.51904296875 5538.296240234375 556.179931640625Q5538.296240234375 376.8304443359375 5478.296240234375 247.100341796875Q5418.296240234375 117.3702392578125 5312.381018066406 47.13494873046875Q5206.465795898437 -23.100341796875 5068.265112304687 -23.100341796875ZM5030.379248046875 151.1246337890625Q5130.970922851562 151.1246337890625 5198.592016601562 205.37548828125Q5266.213110351562 259.6263427734375 5300.363623046875 351.8875732421875Q5334.514135742187 444.1488037109375 5334.514135742187 558.0Q5334.514135742187 671.0311279296875 5300.818640136718 761.4722900390625Q5267.12314453125 851.9134521484375 5199.50205078125 904.84423828125Q5131.88095703125 957.7750244140625 5030.379248046875 957.7750244140625Q4931.697607421875 957.7750244140625 4864.39658203125 907.5743408203125Q4797.095556640625 857.3736572265625 4762.855078125 767.842529296875Q4728.614599609375 678.3114013671875 4728.614599609375 558.0Q4728.614599609375 437.8685302734375 4763.310095214843 346.1072998046875Q4798.005590820312 254.3460693359375 4865.761633300781 202.7353515625Q4933.51767578125 151.1246337890625 5030.379248046875 151.1246337890625Z M5888.934326171875 1490.0V0.0H5688.9619140625V1490.0Z M6568.499658203125 -23.64013671875Q6404.970239257813 -23.64013671875 6286.390649414063 48.04498291015625Q6167.811059570313 119.7301025390625 6103.816247558594 248.7301025390625Q6039.821435546875 377.7301025390625 6039.821435546875 550.539794921875Q6039.821435546875 722.6297607421875 6102.496179199219 853.4948120117188Q6165.170922851563 984.35986328125 6279.885461425782 1058.179931640625Q6394.6 1132 6548.489282226563 1132.0Q6640.907983398438 1132.0 6728.847436523438 1101.600341796875Q6816.786889648438 1071.20068359375 6887.511804199219 1004.8909912109375Q6958.23671875 938.581298828125 6999.966821289063 831.6712646484375Q7041.696923828125 724.76123046875 7041.696923828125 571.6505126953125V495.12109375H6162.0013671875V653.23876953125H6936.510034179688L6843.153588867188 598.138427734375Q6843.153588867188 704.35986328125 6809.958093261719 786.3511962890625Q6776.76259765625 868.342529296875 6711.371606445313 914.683349609375Q6645.980615234375 961.024169921875 6548.849145507813 961.024169921875Q6451.71767578125 961.024169921875 6382.686547851563 913.7733154296875Q6313.655419921875 866.5224609375 6277.2748046875 789.9913330078125Q6240.894189453125 713.460205078125 6240.894189453125 624.5294189453125V518.221435546875Q6240.894189453125 398.7197265625 6282.139855957032 315.638427734375Q6323.385522460938 232.55712890625 6397.781701660157 189.9464111328125Q6472.177880859375 147.335693359375 6570.129418945313 147.335693359375Q6633.8802734375 147.335693359375 6686.035974121094 165.66094970703125Q6738.191674804688 183.9862060546875 6775.8421875 220.956787109375Q6813.492700195313 257.9273681640625 6833.6830078125 312.5882568359375L7023.87685546875 264.2283935546875Q6997.696923828125 178.7889404296875 6934.887231445313 113.93426513671875Q6872.0775390625 49.07958984375 6779.048120117188 12.7197265625Q6686.018701171875 -23.64013671875 6568.499658203125 -23.64013671875Z"/>
  </g>
</svg>
