<svg width="80" height="20" viewBox="0 0 80 20" fill="none" xmlns="http://www.w3.org/2000/svg">
<path d="M17.7829 16V2.26778H23.5062C24.9467 2.26778 26.0606 2.74793 26.7712 3.59299C27.3474 4.2652 27.6931 5.16787 27.6931 6.20499C27.6931 8.72097 26.2527 10.2382 23.2566 10.2382H19.5114V16H17.7829ZM19.5114 3.76584V8.8362H23.1221C25.0619 8.8362 25.9838 7.8567 25.9838 6.28182C25.9838 4.63011 24.9659 3.76584 23.2182 3.76584H19.5114ZM36.3551 16.096C35.3372 16.096 34.7995 15.6351 34.6458 14.6172H34.6266C34.0312 15.3854 33.0133 16.1921 31.3232 16.1921C29.441 16.1921 27.9622 15.3086 27.9622 13.4264C27.9622 11.0833 29.8059 10.6031 32.2835 10.219C33.6855 10.0078 34.665 9.87332 34.665 8.79779C34.665 7.68385 33.8584 7.05005 32.4371 7.05005C30.8238 7.05005 30.0172 7.74146 29.9596 9.23952H28.4615C28.5191 7.31893 29.7867 5.87849 32.4179 5.87849C34.5306 5.87849 36.0863 6.66593 36.0863 9.02826V13.7529C36.0863 14.5596 36.2783 15.0013 37.1426 14.8092H37.2002V15.9424C37.0081 16.0192 36.7585 16.096 36.3551 16.096ZM31.6689 15.0013C33.7431 15.0013 34.6842 13.484 34.6842 12.3317V10.6416C34.1657 10.9681 33.263 11.2177 32.4179 11.3714C30.8623 11.6595 29.6139 11.9283 29.6139 13.388C29.6139 14.7132 30.651 15.0013 31.6689 15.0013ZM39.236 19.2842C38.6406 19.2842 38.2565 19.2458 37.834 19.0729V17.6901H37.9108C38.1221 17.8054 38.4486 17.9014 38.9671 17.9014C39.6201 17.9014 40.0619 17.6517 40.446 16.6914L40.8301 15.7119L36.9505 6.07055H38.6406L40.9838 12.2549C41.2911 13.0807 41.656 14.1946 41.656 14.1946H41.6944C41.6944 14.1946 42.0401 13.0807 42.3474 12.2549L44.6137 6.07055H46.2654L42.0209 16.8066C41.2142 18.8617 40.446 19.2842 39.236 19.2842ZM54.6893 16.096C53.6714 16.096 53.1336 15.6351 52.9799 14.6172H52.9607C52.3654 15.3854 51.3474 16.1921 49.6573 16.1921C47.7751 16.1921 46.2963 15.3086 46.2963 13.4264C46.2963 11.0833 48.1401 10.6031 50.6176 10.219C52.0196 10.0078 52.9991 9.87332 52.9991 8.79779C52.9991 7.68385 52.1925 7.05005 50.7713 7.05005C49.158 7.05005 48.3513 7.74146 48.2937 9.23952H46.7956C46.8533 7.31893 48.1209 5.87849 50.7521 5.87849C52.8647 5.87849 54.4204 6.66593 54.4204 9.02826V13.7529C54.4204 14.5596 54.6124 15.0013 55.4767 14.8092H55.5343V15.9424C55.3423 16.0192 55.0926 16.096 54.6893 16.096ZM50.003 15.0013C52.0773 15.0013 53.0184 13.484 53.0184 12.3317V10.6416C52.4998 10.9681 51.5971 11.2177 50.7521 11.3714C49.1964 11.6595 47.948 11.9283 47.948 13.388C47.948 14.7132 48.9851 15.0013 50.003 15.0013ZM61.2148 16.2881C59.8704 16.2881 58.8909 15.8079 58.0842 14.694H58.0458V16H56.4901V2.26778H58.0458V7.49179H58.0842C58.8332 6.47387 59.8319 5.84008 61.2724 5.84008C63.7884 5.84008 65.4977 7.76067 65.4977 11.0641C65.4977 14.2523 63.9036 16.2881 61.2148 16.2881ZM61.0995 14.9821C63.0009 14.9821 63.9036 13.3304 63.9036 11.0833C63.9036 8.85541 63.0009 7.16529 61.1187 7.16529C58.9485 7.16529 57.9498 8.93223 57.9498 11.0833C57.9498 13.3112 58.9869 14.9821 61.0995 14.9821ZM66.9152 16V2.26778H68.4709V16H66.9152ZM74.6987 16.2689C71.6641 16.2689 69.8972 13.9258 69.8972 11.0449C69.8972 8.16399 71.7794 5.82087 74.6026 5.82087C77.5795 5.82087 79.1736 8.12558 79.1736 11.4098H71.4913C71.6065 13.4264 72.7012 14.9629 74.6987 14.9629C76.1391 14.9629 77.0994 14.2715 77.4451 12.9271H78.9624C78.5014 15.0589 76.9458 16.2689 74.6987 16.2689ZM74.6026 7.05005C72.7589 7.05005 71.7602 8.43288 71.5297 10.2382H77.5027C77.4067 8.26002 76.3888 7.05005 74.6026 7.05005Z" fill="black"/>
<rect y="2.79785" width="2.61311" height="13.4967" fill="#E49DD8"/>
<rect x="2.61523" y="2.79785" width="2.77642" height="13.4967" fill="#73ACDC"/>
<rect x="5.39062" y="2.79785" width="2.61311" height="13.4967" fill="#FAC667"/>
<rect x="10.6191" y="2.79785" width="2.77642" height="13.4967" fill="#869337"/>
<rect x="8.00391" y="2.79785" width="2.61311" height="13.4967" fill="#DF771A"/>
</svg>
